<svg id="svg" version="1.1" xmlns="http://www.w3.org/2000/svg" xmlns:xlink="http://www.w3.org/1999/xlink" width="400" height="400" viewBox="0, 0, 400,400"><g id="svgg"><path id="path0" d="M55.100 87.870 C 54.715 87.974,54.400 88.278,54.400 88.546 C 54.400 88.815,53.611 89.245,52.648 89.503 C 50.169 90.166,48.511 91.701,47.862 93.934 L 47.319 95.800 42.560 96.046 C 37.121 96.327,37.600 96.239,37.600 96.949 C 37.600 97.278,36.972 97.598,36.028 97.749 C 34.000 98.073,31.845 100.089,31.191 102.273 C 30.593 104.267,30.262 104.387,25.316 104.395 C 22.232 104.399,21.515 104.523,20.916 105.153 C 20.522 105.568,19.604 106.034,18.876 106.190 C 17.121 106.566,15.089 108.659,14.469 110.729 C 13.973 112.382,13.948 112.400,12.084 112.403 C 7.159 112.410,4.799 112.866,4.550 113.859 C 4.338 114.702,4.088 114.800,2.157 114.800 L 0.000 114.800 0.000 208.400 L 0.000 302.000 2.105 302.000 C 3.905 302.000,4.268 302.131,4.605 302.900 C 4.976 303.746,5.270 303.807,9.496 303.913 L 13.991 304.026 14.247 305.113 C 14.936 308.037,17.722 310.800,19.982 310.800 C 20.273 310.800,20.742 311.115,21.023 311.500 C 21.447 312.081,22.314 312.223,26.128 312.333 L 30.722 312.467 31.158 314.200 C 31.722 316.437,33.576 318.282,35.833 318.850 C 36.805 319.095,37.600 319.521,37.600 319.797 C 37.600 320.496,39.472 320.800,43.767 320.800 L 47.434 320.800 47.926 322.640 C 48.539 324.931,50.163 326.598,52.358 327.189 C 53.284 327.438,54.393 327.993,54.821 328.421 C 56.212 329.812,96.000 329.568,96.000 328.169 C 96.000 327.873,96.748 327.429,97.663 327.183 C 99.838 326.597,101.463 324.924,102.074 322.640 L 102.566 320.800 106.850 320.800 C 111.403 320.800,112.400 320.621,112.400 319.805 C 112.400 319.524,113.195 319.095,114.167 318.850 C 116.439 318.278,118.278 316.439,118.850 314.167 L 119.295 312.400 123.347 312.395 C 127.904 312.388,129.200 312.158,129.200 311.353 C 129.200 311.049,129.503 310.800,129.874 310.800 C 132.278 310.800,135.045 308.119,135.756 305.100 L 136.015 304.000 140.579 304.000 C 144.102 304.000,145.280 303.863,145.743 303.400 C 146.073 303.070,146.671 302.796,147.071 302.791 C 149.800 302.758,152.763 299.729,152.791 296.943 C 152.796 296.471,153.070 295.982,153.400 295.855 C 153.926 295.654,154.000 292.032,154.000 266.613 L 154.000 237.600 200.000 237.600 L 246.000 237.600 246.000 266.610 L 246.000 295.620 247.168 295.854 C 247.948 296.010,248.412 296.394,248.567 297.013 C 248.928 298.448,250.806 300.442,252.524 301.211 C 253.380 301.594,254.292 302.333,254.551 302.854 C 254.999 303.753,255.244 303.806,259.507 303.913 L 263.991 304.026 264.247 305.113 C 264.936 308.037,267.722 310.800,269.982 310.800 C 270.273 310.800,270.742 311.115,271.023 311.500 C 271.447 312.081,272.314 312.223,276.128 312.333 L 280.722 312.467 281.158 314.200 C 281.722 316.437,283.576 318.282,285.833 318.850 C 286.805 319.095,287.600 319.521,287.600 319.797 C 287.600 320.496,289.472 320.800,293.767 320.800 L 297.434 320.800 297.926 322.640 C 298.539 324.931,300.163 326.598,302.358 327.189 C 303.284 327.438,304.393 327.993,304.821 328.421 C 306.212 329.812,346.000 329.568,346.000 328.169 C 346.000 327.873,346.748 327.429,347.663 327.183 C 349.838 326.597,351.463 324.924,352.074 322.640 L 352.566 320.800 356.850 320.800 C 361.403 320.800,362.400 320.621,362.400 319.805 C 362.400 319.524,363.195 319.095,364.167 318.850 C 366.439 318.278,368.278 316.439,368.850 314.167 L 369.295 312.400 373.347 312.395 C 377.904 312.388,379.200 312.158,379.200 311.353 C 379.200 311.049,379.503 310.800,379.874 310.800 C 382.270 310.800,385.046 308.119,385.750 305.123 L 386.003 304.047 390.702 303.847 C 393.286 303.737,396.435 303.529,397.700 303.386 L 400.000 303.126 400.000 208.363 L 400.000 113.600 397.833 113.600 C 396.642 113.600,395.607 113.429,395.533 113.220 C 395.460 113.011,393.284 112.715,390.698 112.561 L 385.997 112.282 385.514 110.670 C 384.909 108.652,382.861 106.563,381.124 106.190 C 380.396 106.034,379.478 105.568,379.084 105.153 C 378.485 104.523,377.768 104.399,374.684 104.395 C 369.738 104.387,369.407 104.267,368.809 102.273 C 368.155 100.089,366.000 98.073,363.972 97.749 C 363.028 97.598,362.400 97.278,362.400 96.949 C 362.400 96.239,362.879 96.327,357.443 96.046 L 352.685 95.800 352.172 94.057 C 351.515 91.824,350.341 90.594,348.040 89.727 C 347.028 89.345,345.990 88.756,345.732 88.417 C 344.809 87.198,304.400 87.314,304.400 88.535 C 304.400 88.810,303.611 89.245,302.648 89.503 C 300.169 90.166,298.511 91.701,297.862 93.934 L 297.319 95.800 292.560 96.046 C 287.121 96.327,287.600 96.239,287.600 96.949 C 287.600 97.278,286.972 97.598,286.028 97.749 C 284.000 98.073,281.845 100.089,281.191 102.273 C 280.593 104.267,280.262 104.387,275.316 104.395 C 272.232 104.399,271.515 104.523,270.916 105.153 C 270.522 105.568,269.604 106.034,268.876 106.190 C 267.121 106.566,265.089 108.659,264.469 110.729 C 263.973 112.382,263.948 112.400,262.084 112.403 C 257.384 112.410,254.796 112.877,254.572 113.759 C 254.440 114.276,253.557 114.985,252.279 115.600 C 250.546 116.434,250.034 116.942,249.200 118.656 C 248.444 120.211,247.932 120.769,247.100 120.946 L 246.000 121.180 246.000 150.190 L 246.000 179.200 200.000 179.200 L 154.000 179.200 154.000 150.233 C 154.000 128.779,153.881 121.227,153.541 121.114 C 153.288 121.029,152.831 119.984,152.526 118.790 C 151.813 116.007,150.770 114.929,148.019 114.134 C 146.798 113.782,145.705 113.348,145.590 113.169 C 145.474 112.990,143.268 112.717,140.688 112.563 L 135.997 112.282 135.514 110.670 C 134.909 108.652,132.861 106.563,131.124 106.190 C 130.396 106.034,129.478 105.568,129.084 105.153 C 128.485 104.523,127.768 104.399,124.684 104.395 C 119.738 104.387,119.407 104.267,118.809 102.273 C 118.155 100.089,116.000 98.073,113.972 97.749 C 113.028 97.598,112.400 97.278,112.400 96.949 C 112.400 96.239,112.879 96.327,107.443 96.046 L 102.685 95.800 102.172 94.057 C 101.515 91.824,100.341 90.594,98.040 89.727 C 97.028 89.345,95.990 88.756,95.732 88.417 C 95.277 87.816,57.203 87.304,55.100 87.870 M93.223 129.114 L 97.447 129.247 97.935 131.074 C 98.518 133.255,100.303 135.071,102.216 135.429 C 102.963 135.569,104.039 136.115,104.608 136.642 C 105.560 137.525,105.967 137.600,109.805 137.600 L 113.968 137.600 114.469 139.271 C 115.109 141.408,117.173 143.484,119.000 143.826 C 119.776 143.972,120.544 144.314,120.706 144.587 C 121.302 145.591,122.825 146.000,125.974 146.000 L 129.200 146.000 129.200 208.400 L 129.200 270.800 126.500 270.802 C 123.624 270.805,120.800 271.400,120.800 272.003 C 120.800 272.205,120.046 272.572,119.124 272.820 C 116.983 273.397,114.997 275.383,114.420 277.524 L 113.969 279.200 110.435 279.200 C 106.330 279.200,104.400 279.509,104.400 280.167 C 104.400 280.424,103.559 280.859,102.531 281.134 C 100.134 281.775,98.096 283.862,97.749 286.028 L 97.498 287.600 93.323 287.600 C 91.026 287.600,88.799 287.786,88.374 288.014 C 87.610 288.423,87.600 287.397,87.600 208.371 C 87.600 132.266,87.635 128.331,88.300 128.648 C 88.685 128.831,90.901 129.041,93.223 129.114 M343.223 129.114 L 347.447 129.247 347.935 131.074 C 348.518 133.255,350.303 135.071,352.216 135.429 C 352.963 135.569,354.039 136.115,354.608 136.642 C 355.560 137.525,355.967 137.600,359.805 137.600 L 363.968 137.600 364.469 139.271 C 365.109 141.408,367.173 143.484,369.000 143.826 C 369.776 143.972,370.544 144.314,370.706 144.587 C 371.302 145.591,372.825 146.000,375.974 146.000 L 379.200 146.000 379.200 208.400 L 379.200 270.800 376.500 270.802 C 373.624 270.805,370.800 271.400,370.800 272.003 C 370.800 272.205,370.046 272.572,369.124 272.820 C 366.983 273.397,364.997 275.383,364.420 277.524 L 363.969 279.200 360.435 279.200 C 356.330 279.200,354.400 279.509,354.400 280.167 C 354.400 280.424,353.559 280.859,352.531 281.134 C 350.134 281.775,348.096 283.862,347.749 286.028 L 347.498 287.600 343.323 287.600 C 341.026 287.600,338.799 287.786,338.374 288.014 C 337.610 288.423,337.600 287.397,337.600 208.371 C 337.600 132.266,337.635 128.331,338.300 128.648 C 338.685 128.831,340.901 129.041,343.223 129.114 M62.301 287.774 C 62.245 287.797,60.016 287.753,57.347 287.675 L 52.494 287.535 52.266 286.130 C 51.926 284.032,50.306 282.179,48.107 281.372 C 47.058 280.987,45.968 280.387,45.685 280.038 C 45.283 279.545,44.158 279.373,40.588 279.259 L 36.008 279.114 35.568 277.481 C 35.002 275.379,33.002 273.393,30.876 272.820 C 29.954 272.572,29.200 272.205,29.200 272.003 C 29.200 271.400,26.376 270.805,23.500 270.802 L 20.800 270.800 20.800 208.400 L 20.800 146.000 24.345 146.000 C 27.542 146.000,27.985 145.907,28.845 145.051 C 29.370 144.529,30.396 143.972,31.124 143.814 C 32.881 143.432,34.912 141.339,35.531 139.271 L 36.032 137.600 40.362 137.600 C 44.383 137.600,44.759 137.532,45.645 136.651 C 46.170 136.129,47.180 135.576,47.889 135.421 C 49.760 135.015,51.495 133.205,52.068 131.062 L 52.560 129.223 57.380 129.112 L 62.200 129.000 62.301 208.366 C 62.357 252.017,62.357 287.750,62.301 287.774 M312.301 287.774 C 312.245 287.797,310.016 287.753,307.347 287.675 L 302.494 287.535 302.266 286.130 C 301.926 284.032,300.306 282.179,298.107 281.372 C 297.058 280.987,295.968 280.387,295.685 280.038 C 295.283 279.545,294.158 279.373,290.588 279.259 L 286.008 279.114 285.568 277.481 C 285.002 275.379,283.002 273.393,280.876 272.820 C 279.954 272.572,279.200 272.205,279.200 272.003 C 279.200 271.400,276.376 270.805,273.500 270.802 L 270.800 270.800 270.800 208.400 L 270.800 146.000 274.345 146.000 C 277.542 146.000,277.985 145.907,278.845 145.051 C 279.370 144.529,280.396 143.972,281.124 143.814 C 282.881 143.432,284.912 141.339,285.531 139.271 L 286.032 137.600 290.362 137.600 C 294.383 137.600,294.759 137.532,295.645 136.651 C 296.170 136.129,297.180 135.576,297.889 135.421 C 299.760 135.015,301.495 133.205,302.068 131.062 L 302.560 129.223 307.380 129.112 L 312.200 129.000 312.301 208.366 C 312.357 252.017,312.357 287.750,312.301 287.774 M246.000 208.200 L 246.000 212.400 200.000 212.400 L 154.000 212.400 154.000 208.200 L 154.000 204.000 200.000 204.000 L 246.000 204.000 246.000 208.200 " stroke="none" fill="#0f5718" fill-rule="evenodd"></path><path id="path1" d="" stroke="none" fill="#102c64" fill-rule="evenodd"></path><path id="path2" d="" stroke="none" fill="#102c64" fill-rule="evenodd"></path><path id="path3" d="" stroke="none" fill="#102c64" fill-rule="evenodd"></path><path id="path4" d="" stroke="none" fill="#102c64" fill-rule="evenodd"></path></g></svg>